<?xml version="1.0" standalone="no"?>
<!DOCTYPE svg PUBLIC "-//W3C//DTD SVG 20010904//EN"
 "http://www.w3.org/TR/2001/REC-SVG-20010904/DTD/svg10.dtd">
<svg version="1.0" xmlns="http://www.w3.org/2000/svg"
 width="48.000000pt" height="48.000000pt" viewBox="0 0 48.000000 48.000000"
 preserveAspectRatio="xMidYMid meet">

<g transform="translate(0.000000,48.000000) scale(0.100000,-0.100000)"
fill="#000000" stroke="none">
<path d="M380 445 c0 -9 9 -15 21 -15 20 0 20 -1 -5 -31 -35 -41 -33 -49 13
-49 42 0 64 16 37 26 -14 5 -14 8 -1 27 27 39 20 57 -25 57 -29 0 -40 -4 -40
-15z m70 -8 c0 -8 -12 -24 -26 -38 l-26 -24 29 -6 c25 -6 24 -7 -11 -8 l-40
-1 32 33 c18 18 32 36 32 39 0 4 -12 9 -27 11 -26 4 -26 4 5 6 21 0 32 -4 32
-12z"/>
<path d="M148 433 c-22 -26 -30 -115 -13 -140 13 -18 11 -21 -20 -36 -47 -22
-69 -68 -62 -127 5 -38 2 -48 -14 -58 -10 -7 -19 -16 -19 -20 0 -5 69 -10 154
-11 l155 -2 17 27 c22 32 22 105 1 156 -11 27 -23 38 -46 43 -34 7 -41 36 -17
68 18 23 5 75 -25 100 -28 22 -91 22 -111 0z m60 -4 c-10 -5 -29 -27 -43 -47
-24 -35 -25 -35 -25 -12 0 38 27 70 58 70 23 -1 25 -2 10 -11z m52 -21 c0 -13
-23 -5 -28 10 -2 7 2 10 12 6 9 -3 16 -11 16 -16z m-19 -18 c16 0 19 -7 19
-55 0 -40 -4 -56 -17 -63 -23 -14 -56 3 -77 39 -17 29 -17 29 6 38 13 6 17 10
9 10 -10 1 -7 9 10 27 13 14 25 20 27 15 2 -6 12 -11 23 -11z m-49 -153 c-6
-24 -27 -16 -28 11 -1 12 -9 33 -18 46 -27 42 -18 42 18 1 20 -24 31 -46 28
-58z m65 8 c-6 -15 -47 -22 -47 -7 0 8 42 30 49 25 2 -1 1 -9 -2 -18z m-140
-33 c-20 -21 -37 -47 -37 -57 0 -16 4 -14 18 10 27 44 50 61 64 47 23 -23 -28
-132 -62 -132 -25 0 -31 12 -32 59 -1 56 10 80 45 101 45 28 46 15 4 -28z
m219 3 c19 -45 18 -115 -2 -143 -13 -19 -24 -22 -80 -22 -82 0 -89 22 -11 36
49 8 52 11 55 41 2 18 -1 41 -7 50 -8 15 -10 10 -11 -24 0 -46 -2 -47 -84 -59
-40 -5 -48 -4 -43 7 47 115 49 119 77 119 15 0 33 7 40 15 22 26 50 18 66 -20z
m-221 -144 c32 13 55 10 55 -7 0 -12 -12 -15 -64 -12 -49 2 -62 6 -54 15 6 8
16 9 27 4 9 -5 25 -5 36 0z"/>
<path d="M202 335 c1 -11 -2 -26 -6 -34 -7 -11 -5 -13 8 -8 10 4 23 7 29 7 8
0 9 3 1 8 -6 4 -16 16 -23 27 l-12 20 3 -20z"/>
<path d="M332 310 c0 -23 4 -30 18 -30 24 0 31 11 23 38 -9 34 -40 28 -41 -8z
m23 -10 c3 -5 1 -10 -4 -10 -6 0 -11 5 -11 10 0 6 2 10 4 10 3 0 8 -4 11 -10z"/>
</g>
</svg>
